<?xml version="1.0" standalone="no"?>
<!DOCTYPE svg PUBLIC "-//W3C//DTD SVG 20010904//EN"
 "http://www.w3.org/TR/2001/REC-SVG-20010904/DTD/svg10.dtd">
<svg version="1.0" xmlns="http://www.w3.org/2000/svg"
 width="820.000000pt" height="820.000000pt" viewBox="0 0 820.000000 820.000000"
 preserveAspectRatio="xMidYMid meet">
<metadata>
Created by potrace 1.14, written by Peter Selinger 2001-2017
</metadata>
<g transform="translate(0.000000,820.000000) scale(0.100000,-0.100000)"
fill="#000000" stroke="none">
<path d="M3646 8163 c-2 -2 -25 -5 -52 -8 -27 -2 -71 -7 -99 -11 -27 -4 -61
-8 -75 -9 -14 -2 -38 -6 -55 -9 -16 -3 -39 -8 -50 -10 -11 -2 -40 -7 -65 -12
-51 -9 -59 -11 -62 -14 -3 -2 -16 -5 -53 -13 -105 -24 -322 -96 -415 -139 -36
-16 -66 -29 -67 -29 -8 2 -99 -45 -101 -51 -2 -5 -10 -8 -18 -8 -18 0 -99 -45
-239 -132 -60 -38 -119 -74 -130 -81 -11 -6 -22 -14 -25 -17 -3 -3 -38 -30
-79 -60 -41 -30 -85 -64 -97 -75 -12 -11 -43 -38 -70 -60 -64 -54 -257 -246
-319 -319 -27 -32 -56 -65 -62 -72 -7 -7 -13 -17 -13 -22 0 -6 -3 -12 -7 -14
-23 -10 -155 -199 -241 -344 -69 -118 -187 -356 -197 -399 -2 -5 -13 -35 -25
-65 -37 -92 -107 -317 -115 -370 -2 -14 -6 -34 -9 -45 -56 -250 -71 -397 -70
-680 0 -208 7 -324 25 -419 5 -27 7 -51 5 -53 -2 -2 -23 -18 -48 -36 -128 -91
-192 -178 -224 -303 -35 -140 -17 -261 50 -332 34 -37 97 -74 136 -80 13 -2
26 -4 27 -6 2 -2 -10 -17 -67 -83 -26 -30 -75 -121 -91 -168 -19 -58 -18 -85
5 -127 25 -47 76 -62 146 -42 25 8 45 13 45 13 0 -1 47 15 90 31 103 39 96 43
138 -64 20 -52 37 -96 37 -98 0 -2 -14 -5 -32 -6 -46 -4 -148 -56 -191 -97
-89 -87 -117 -230 -64 -331 34 -66 88 -100 242 -154 127 -45 143 -53 154 -74
6 -12 13 -75 15 -141 6 -161 24 -219 89 -288 45 -48 116 -71 204 -64 80 6 135
16 174 32 10 4 24 -5 40 -27 50 -67 192 -200 248 -232 9 -5 21 -15 28 -21 40
-40 355 -175 446 -191 16 -2 38 -9 49 -15 10 -5 23 -7 28 -4 5 3 11 1 15 -5 4
-6 10 -8 15 -5 5 3 19 1 32 -4 12 -4 46 -11 73 -15 28 -3 68 -8 90 -12 22 -3
63 -7 91 -8 28 -2 55 -5 60 -8 13 -7 417 -2 494 6 36 4 88 9 115 12 78 7 118
12 150 18 17 2 50 8 75 11 25 3 53 8 63 11 10 3 32 7 50 10 28 3 78 13 157 30
14 3 36 7 50 10 14 3 34 8 45 11 11 4 25 8 30 9 6 1 21 5 35 7 14 3 40 10 58
16 18 5 35 10 37 10 3 1 6 1 8 2 3 1 29 7 52 12 59 14 81 20 90 26 6 3 18 7
27 8 9 2 36 10 60 18 24 9 51 18 61 20 10 2 45 14 79 26 33 11 65 22 72 24 6
1 18 5 26 9 8 3 52 19 98 35 71 26 82 27 82 13 0 -31 70 -153 109 -192 178
-176 449 -172 619 9 40 42 94 139 95 169 0 6 3 12 6 12 10 0 15 119 7 156 -7
34 -42 97 -65 117 -12 9 -37 26 -56 36 l-35 19 62 31 c35 17 90 47 123 66 33
19 75 42 92 52 88 49 199 117 205 127 4 6 8 8 8 4 0 -8 331 212 350 232 3 3
30 23 60 45 30 21 60 43 65 50 6 6 33 28 60 49 114 86 344 305 425 405 19 23
45 55 58 69 44 51 170 247 211 328 42 84 99 235 106 282 3 15 11 55 19 90 9
40 13 109 11 195 -3 144 -6 171 -36 266 l-20 64 21 26 c51 63 96 141 116 201
42 123 24 278 -42 367 -28 38 -30 52 -6 48 9 -1 32 3 50 11 17 7 32 11 32 8 0
-16 35 33 45 63 10 29 10 46 0 84 -14 51 -54 129 -67 129 -4 0 -8 6 -8 13 0
18 -124 132 -176 163 l-43 25 3 74 c4 67 -6 146 -21 185 -4 8 -7 17 -7 20 -4
19 -44 113 -64 150 -25 46 -72 110 -105 143 -40 41 -207 130 -207 111 0 -4 -7
-1 -16 6 -17 15 -234 20 -320 8 -51 -7 -52 -7 -58 22 -16 81 -197 367 -321
506 -5 7 -26 31 -45 55 -38 46 -230 241 -297 301 -113 102 -413 318 -441 318
-7 0 -12 4 -12 8 0 9 -51 37 -224 124 -84 42 -134 65 -156 73 -3 1 -12 5 -20
8 -8 3 -34 13 -57 22 -24 8 -62 22 -85 30 -24 9 -50 18 -58 22 -8 3 -19 7 -25
8 -5 2 -52 15 -102 29 -104 29 -199 52 -257 60 -21 4 -41 8 -45 10 -3 2 -33 7
-66 10 -33 4 -67 9 -75 11 -52 14 -591 30 -604 18z"/>
<path d="M3497 704 c-2 -2 -86 -6 -188 -9 -256 -9 -483 -19 -619 -30 -36 -2
-96 -7 -135 -10 -100 -7 -170 -13 -250 -21 -38 -4 -83 -8 -100 -9 -16 -1 -55
-5 -85 -9 -30 -4 -71 -9 -90 -11 -19 -2 -51 -6 -70 -9 -19 -3 -57 -8 -85 -11
-27 -3 -59 -8 -70 -11 -11 -2 -36 -6 -55 -9 -19 -2 -46 -6 -60 -9 -13 -3 -42
-8 -65 -12 -150 -22 -371 -100 -407 -143 -18 -21 -17 -53 2 -76 12 -15 128
-73 157 -78 10 -2 25 -7 33 -10 18 -7 68 -19 95 -23 11 -2 38 -8 60 -14 22 -5
51 -12 65 -14 40 -6 93 -16 125 -22 17 -3 46 -7 65 -10 19 -2 49 -6 65 -9 40
-6 89 -13 150 -19 28 -3 59 -8 70 -10 11 -2 60 -7 109 -11 50 -4 97 -8 106
-10 10 -2 57 -6 106 -10 49 -3 118 -8 154 -11 452 -35 900 -48 1575 -48 423 1
910 8 910 14 0 1 45 3 100 5 113 4 266 13 370 20 39 3 106 8 150 10 44 3 98 7
120 9 41 5 143 15 205 21 39 3 161 15 200 20 14 1 43 5 65 9 22 4 60 9 84 11
24 2 96 14 160 25 64 12 127 23 141 25 14 2 25 4 25 5 0 1 7 3 15 5 8 2 35 8
60 15 25 6 52 13 60 14 54 11 162 60 191 87 32 30 33 55 3 90 -16 18 -117 65
-149 69 -3 0 -23 7 -46 15 -23 9 -51 17 -63 19 -12 3 -54 12 -93 20 -40 9 -85
18 -100 20 -89 16 -174 28 -213 32 -25 2 -56 7 -70 11 -14 3 -38 7 -55 8 -16
2 -52 6 -80 9 -179 19 -280 28 -337 30 -27 0 -48 3 -48 6 0 3 -24 5 -53 6 -28
1 -97 4 -152 8 -181 13 -240 16 -610 32 -146 6 -1442 13 -1448 8z"/>
</g>
</svg>
